<svg xmlns="http://www.w3.org/2000/svg" version="1.1" xmlns:xlink="http://www.w3.org/1999/xlink" xmlns:svgjs="http://svgjs.com/svgjs" width="1440" height="560" preserveAspectRatio="none" viewBox="0 0 1440 560"><g mask="url(&quot;#SvgjsMask1013&quot;)" fill="none"><rect width="1440" height="560" x="0" y="0" fill="rgba(254, 254, 255, 1)"></rect><path d="M-90.21 445.29C29.63 442.57 132.45 277.05 358.89 277.29 585.32 277.53 675.57 550.29 807.98 561.94" stroke="rgba(228, 106, 8, 0.58)" stroke-width="2"></path><path d="M-10.24 287.21C99.11 287.44 205.63 357.21 421.51 357.21 637.38 357.21 625.78 283.47 853.25 287.21 1080.73 290.95 1146.66 622.32 1285 644.46" stroke="rgba(228, 106, 8, 0.58)" stroke-width="2"></path><path d="M-183.44 301.85C-34 299.55 89.77 114.01 385.11 117.05 680.44 120.09 766.68 587.68 953.65 622.38" stroke="rgba(228, 106, 8, 0.58)" stroke-width="2"></path><path d="M-115.74 69.33C-6.73 69.56 99.44 139.33 314.63 139.33 529.81 139.33 504.29 57.27 745 69.33 985.71 81.39 1017.21 524.01 1175.37 573.47" stroke="rgba(228, 106, 8, 0.58)" stroke-width="2"></path><path d="M-105.13 372.9C57.52 368.2 190.58 125.46 497.29 126.5 804 127.54 909.52 576.4 1099.71 604.19" stroke="rgba(228, 106, 8, 0.58)" stroke-width="2"></path></g><defs><mask id="SvgjsMask1013"><rect width="1440" height="560" fill="#ffffff"></rect></mask></defs></svg>